<mxfile host="app.diagrams.net" agent="Mozilla/5.0 (Macintosh; Intel Mac OS X 10_15_7) AppleWebKit/537.36 (KHTML, like Gecko) Chrome/127.0.0.0 Safari/537.36" version="24.7.7">
  <diagram id="Ht1M8jgEwFfnCIfOTk4-" name="Page-1">
    <mxGraphModel dx="1468" dy="1692" grid="1" gridSize="10" guides="1" tooltips="1" connect="1" arrows="1" fold="1" page="1" pageScale="1" pageWidth="1169" pageHeight="827" math="0" shadow="0">
      <root>
        <mxCell id="0" />
        <mxCell id="1" parent="0" />
        <mxCell id="UEzPUAAOIrF-is8g5C7q-164" style="edgeStyle=orthogonalEdgeStyle;rounded=0;orthogonalLoop=1;jettySize=auto;html=1;startArrow=open;startFill=0;endArrow=open;endFill=0;strokeColor=#808080;strokeWidth=2;" parent="1" edge="1">
          <mxGeometry relative="1" as="geometry">
            <Array as="points">
              <mxPoint x="237" y="-690" />
              <mxPoint x="237" y="-525" />
            </Array>
            <mxPoint x="120" y="-690" as="sourcePoint" />
            <mxPoint x="360" y="-525" as="targetPoint" />
          </mxGeometry>
        </mxCell>
        <mxCell id="UEzPUAAOIrF-is8g5C7q-165" style="edgeStyle=orthogonalEdgeStyle;rounded=0;orthogonalLoop=1;jettySize=auto;html=1;startArrow=open;startFill=0;endArrow=open;endFill=0;strokeColor=#666666;strokeWidth=2;fillColor=#f5f5f5;" parent="1" edge="1">
          <mxGeometry relative="1" as="geometry">
            <Array as="points">
              <mxPoint x="120" y="-370" />
              <mxPoint x="237" y="-370" />
              <mxPoint x="237" y="-525" />
            </Array>
            <mxPoint x="120" y="-370" as="sourcePoint" />
            <mxPoint x="360" y="-525" as="targetPoint" />
          </mxGeometry>
        </mxCell>
        <mxCell id="UEzPUAAOIrF-is8g5C7q-154" value="AWS Cloud" style="points=[[0,0],[0.25,0],[0.5,0],[0.75,0],[1,0],[1,0.25],[1,0.5],[1,0.75],[1,1],[0.75,1],[0.5,1],[0.25,1],[0,1],[0,0.75],[0,0.5],[0,0.25]];outlineConnect=0;gradientColor=none;html=1;whiteSpace=wrap;fontSize=12;fontStyle=0;shape=mxgraph.aws4.group;grIcon=mxgraph.aws4.group_aws_cloud_alt;strokeColor=#232F3E;fillColor=none;verticalAlign=top;align=left;spacingLeft=30;fontColor=#232F3E;dashed=0;labelBackgroundColor=#ffffff;container=1;pointerEvents=0;collapsible=0;recursiveResize=0;" parent="1" vertex="1">
          <mxGeometry x="820" y="-595.83" width="280" height="163.83" as="geometry" />
        </mxCell>
        <mxCell id="Ff7fLQkUT2agd0PjBhRr-4" value="" style="sketch=0;outlineConnect=0;fontColor=#232F3E;gradientColor=none;fillColor=#232F3D;strokeColor=none;dashed=0;verticalLabelPosition=bottom;verticalAlign=top;align=center;html=1;fontSize=12;fontStyle=0;aspect=fixed;pointerEvents=1;shape=mxgraph.aws4.servers;" vertex="1" parent="UEzPUAAOIrF-is8g5C7q-154">
          <mxGeometry x="30" y="50" width="78" height="78" as="geometry" />
        </mxCell>
        <mxCell id="Ff7fLQkUT2agd0PjBhRr-19" value="" style="sketch=0;outlineConnect=0;fontColor=#232F3E;gradientColor=none;fillColor=#C925D1;strokeColor=none;dashed=0;verticalLabelPosition=bottom;verticalAlign=top;align=center;html=1;fontSize=12;fontStyle=0;aspect=fixed;pointerEvents=1;shape=mxgraph.aws4.rds_instance;" vertex="1" parent="UEzPUAAOIrF-is8g5C7q-154">
          <mxGeometry x="160" y="50" width="78" height="78" as="geometry" />
        </mxCell>
        <mxCell id="UEzPUAAOIrF-is8g5C7q-155" value="" style="rounded=0;whiteSpace=wrap;html=1;dashed=1;labelBackgroundColor=#ffffff;fillColor=none;gradientColor=none;container=1;pointerEvents=0;collapsible=0;recursiveResize=0;" parent="1" vertex="1">
          <mxGeometry x="367" y="-566" width="110" height="90" as="geometry" />
        </mxCell>
        <mxCell id="Ff7fLQkUT2agd0PjBhRr-6" value="" style="sketch=0;outlineConnect=0;fontColor=#232F3E;gradientColor=none;fillColor=#232F3D;strokeColor=none;dashed=0;verticalLabelPosition=bottom;verticalAlign=top;align=center;html=1;fontSize=12;fontStyle=0;aspect=fixed;pointerEvents=1;shape=mxgraph.aws4.internet_alt1;" vertex="1" parent="1">
          <mxGeometry x="560" y="-545.83" width="78" height="48" as="geometry" />
        </mxCell>
        <mxCell id="Ff7fLQkUT2agd0PjBhRr-9" value="" style="sketch=0;points=[[0,0,0],[0.25,0,0],[0.5,0,0],[0.75,0,0],[1,0,0],[0,1,0],[0.25,1,0],[0.5,1,0],[0.75,1,0],[1,1,0],[0,0.25,0],[0,0.5,0],[0,0.75,0],[1,0.25,0],[1,0.5,0],[1,0.75,0]];outlineConnect=0;dashed=0;verticalLabelPosition=bottom;verticalAlign=top;align=center;html=1;fontSize=12;fontStyle=0;aspect=fixed;shape=mxgraph.aws4.resourceIcon;resIcon=mxgraph.aws4.compute;" vertex="1" parent="1">
          <mxGeometry x="383" y="-560" width="78" height="78" as="geometry" />
        </mxCell>
        <mxCell id="Ff7fLQkUT2agd0PjBhRr-12" value="" style="sketch=0;outlineConnect=0;fontColor=#232F3E;gradientColor=none;fillColor=#7AA116;strokeColor=none;dashed=0;verticalLabelPosition=bottom;verticalAlign=top;align=center;html=1;fontSize=12;fontStyle=0;aspect=fixed;pointerEvents=1;shape=mxgraph.aws4.factory;" vertex="1" parent="1">
          <mxGeometry x="30" y="-730" width="78" height="78" as="geometry" />
        </mxCell>
        <mxCell id="Ff7fLQkUT2agd0PjBhRr-13" value="" style="sketch=0;outlineConnect=0;fontColor=#232F3E;gradientColor=none;fillColor=#7AA116;strokeColor=none;dashed=0;verticalLabelPosition=bottom;verticalAlign=top;align=center;html=1;fontSize=12;fontStyle=0;aspect=fixed;pointerEvents=1;shape=mxgraph.aws4.house;" vertex="1" parent="1">
          <mxGeometry x="30" y="-410" width="78" height="78" as="geometry" />
        </mxCell>
        <mxCell id="Ff7fLQkUT2agd0PjBhRr-14" value="" style="sketch=0;outlineConnect=0;fontColor=#232F3E;gradientColor=none;fillColor=#7AA116;strokeColor=none;dashed=0;verticalLabelPosition=bottom;verticalAlign=top;align=center;html=1;fontSize=12;fontStyle=0;aspect=fixed;pointerEvents=1;shape=mxgraph.aws4.medical_emergency;" vertex="1" parent="1">
          <mxGeometry x="30" y="-622" width="78" height="78" as="geometry" />
        </mxCell>
        <mxCell id="Ff7fLQkUT2agd0PjBhRr-15" value="" style="sketch=0;outlineConnect=0;fontColor=#232F3E;gradientColor=none;fillColor=#7AA116;strokeColor=none;dashed=0;verticalLabelPosition=bottom;verticalAlign=top;align=center;html=1;fontSize=12;fontStyle=0;aspect=fixed;pointerEvents=1;shape=mxgraph.aws4.windfarm;" vertex="1" parent="1">
          <mxGeometry x="30" y="-510" width="78" height="78" as="geometry" />
        </mxCell>
        <mxCell id="Ff7fLQkUT2agd0PjBhRr-16" value="" style="endArrow=none;html=1;rounded=0;fontSize=12;startSize=8;endSize=8;strokeColor=#666666;startArrow=open;startFill=0;strokeWidth=2;edgeStyle=orthogonalEdgeStyle;" edge="1" parent="1">
          <mxGeometry width="50" height="50" relative="1" as="geometry">
            <mxPoint x="120" y="-570" as="sourcePoint" />
            <mxPoint x="240" y="-570" as="targetPoint" />
          </mxGeometry>
        </mxCell>
        <mxCell id="Ff7fLQkUT2agd0PjBhRr-17" value="" style="endArrow=none;html=1;rounded=0;fontSize=12;startSize=8;endSize=8;strokeColor=#666666;startArrow=open;startFill=0;strokeWidth=2;edgeStyle=orthogonalEdgeStyle;" edge="1" parent="1">
          <mxGeometry width="50" height="50" relative="1" as="geometry">
            <mxPoint x="120" y="-460" as="sourcePoint" />
            <mxPoint x="240" y="-460" as="targetPoint" />
          </mxGeometry>
        </mxCell>
        <mxCell id="Ff7fLQkUT2agd0PjBhRr-18" style="edgeStyle=none;curved=1;rounded=0;orthogonalLoop=1;jettySize=auto;html=1;exitX=0;exitY=1;exitDx=0;exitDy=0;fontSize=12;startSize=8;endSize=8;" edge="1" parent="1" source="UEzPUAAOIrF-is8g5C7q-154" target="UEzPUAAOIrF-is8g5C7q-154">
          <mxGeometry relative="1" as="geometry" />
        </mxCell>
        <mxCell id="Ff7fLQkUT2agd0PjBhRr-21" value="MQTT&#xa;protocol" style="sketch=0;outlineConnect=0;fontColor=#232F3E;gradientColor=none;strokeColor=#232F3E;fillColor=#ffffff;dashed=0;verticalLabelPosition=bottom;verticalAlign=top;align=center;html=1;fontSize=12;fontStyle=0;aspect=fixed;shape=mxgraph.aws4.resourceIcon;resIcon=mxgraph.aws4.mqtt_protocol;" vertex="1" parent="1">
          <mxGeometry x="640" y="-551" width="60" height="60" as="geometry" />
        </mxCell>
        <mxCell id="Ff7fLQkUT2agd0PjBhRr-22" value="Dashboard" style="sketch=0;outlineConnect=0;gradientColor=none;fontColor=#545B64;strokeColor=none;fillColor=#879196;dashed=0;verticalLabelPosition=bottom;verticalAlign=top;align=center;html=1;fontSize=12;fontStyle=0;aspect=fixed;shape=mxgraph.aws4.illustration_desktop;pointerEvents=1" vertex="1" parent="1">
          <mxGeometry x="920" y="-271" width="100" height="91" as="geometry" />
        </mxCell>
        <mxCell id="Ff7fLQkUT2agd0PjBhRr-23" value="" style="sketch=0;pointerEvents=1;shadow=0;dashed=0;html=1;strokeColor=none;labelPosition=center;verticalLabelPosition=bottom;verticalAlign=top;align=center;fillColor=#505050;shape=mxgraph.mscae.oms.dashboard" vertex="1" parent="1">
          <mxGeometry x="937" y="-262.75" width="66" height="41.5" as="geometry" />
        </mxCell>
        <mxCell id="Ff7fLQkUT2agd0PjBhRr-27" value="&lt;font style=&quot;font-size: 9px;&quot;&gt;modulo de adquisiciÃ³n y control&lt;/font&gt;" style="text;strokeColor=none;fillColor=none;html=1;align=center;verticalAlign=middle;whiteSpace=wrap;rounded=0;fontSize=16;" vertex="1" parent="1">
          <mxGeometry x="367" y="-470" width="111" height="30" as="geometry" />
        </mxCell>
        <mxCell id="Ff7fLQkUT2agd0PjBhRr-30" value="" style="edgeStyle=orthogonalEdgeStyle;orthogonalLoop=1;jettySize=auto;html=1;endArrow=open;startArrow=open;endSize=8;startSize=8;rounded=0;fontSize=12;strokeColor=#666666;startFill=0;endFill=0;strokeWidth=2;" edge="1" parent="1">
          <mxGeometry width="140" relative="1" as="geometry">
            <mxPoint x="970" y="-306" as="sourcePoint" />
            <mxPoint x="970" y="-273.93690391423365" as="targetPoint" />
          </mxGeometry>
        </mxCell>
        <mxCell id="Ff7fLQkUT2agd0PjBhRr-31" value="" style="edgeStyle=orthogonalEdgeStyle;orthogonalLoop=1;jettySize=auto;html=1;endArrow=open;startArrow=open;endSize=8;startSize=8;rounded=0;fontSize=12;strokeColor=#666666;startFill=0;endFill=0;strokeWidth=2;" edge="1" parent="1">
          <mxGeometry width="140" relative="1" as="geometry">
            <mxPoint x="971" y="-430" as="sourcePoint" />
            <mxPoint x="971" y="-397.93690391423365" as="targetPoint" />
          </mxGeometry>
        </mxCell>
        <mxCell id="Ff7fLQkUT2agd0PjBhRr-34" value="" style="edgeStyle=orthogonalEdgeStyle;orthogonalLoop=1;jettySize=auto;html=1;endArrow=open;startArrow=open;endSize=8;startSize=8;rounded=0;fontSize=12;startFill=0;endFill=0;strokeColor=#666666;strokeWidth=2;" edge="1" parent="1">
          <mxGeometry width="140" relative="1" as="geometry">
            <mxPoint x="478" y="-521.48" as="sourcePoint" />
            <mxPoint x="550" y="-521" as="targetPoint" />
          </mxGeometry>
        </mxCell>
        <mxCell id="Ff7fLQkUT2agd0PjBhRr-35" value="" style="edgeStyle=orthogonalEdgeStyle;orthogonalLoop=1;jettySize=auto;html=1;endArrow=open;startArrow=open;endSize=8;startSize=8;rounded=0;fontSize=12;strokeColor=#666666;startFill=0;endFill=0;strokeWidth=2;" edge="1" parent="1" source="Ff7fLQkUT2agd0PjBhRr-21">
          <mxGeometry width="140" relative="1" as="geometry">
            <mxPoint x="730" y="-522" as="sourcePoint" />
            <mxPoint x="813" y="-521.83" as="targetPoint" />
          </mxGeometry>
        </mxCell>
        <mxCell id="Ff7fLQkUT2agd0PjBhRr-36" value="HTTP&#xa;protocol" style="sketch=0;outlineConnect=0;fontColor=#232F3E;gradientColor=none;strokeColor=#232F3E;fillColor=#ffffff;dashed=0;verticalLabelPosition=bottom;verticalAlign=top;align=center;html=1;fontSize=12;fontStyle=0;aspect=fixed;shape=mxgraph.aws4.resourceIcon;resIcon=mxgraph.aws4.http_protocol;" vertex="1" parent="1">
          <mxGeometry x="943.5" y="-396" width="53" height="53" as="geometry" />
        </mxCell>
        <mxCell id="Ff7fLQkUT2agd0PjBhRr-38" style="edgeStyle=none;curved=1;rounded=0;orthogonalLoop=1;jettySize=auto;html=1;exitX=0;exitY=1;exitDx=0;exitDy=0;fontSize=12;startSize=8;endSize=8;" edge="1" parent="1" source="UEzPUAAOIrF-is8g5C7q-154" target="UEzPUAAOIrF-is8g5C7q-154">
          <mxGeometry relative="1" as="geometry" />
        </mxCell>
      </root>
    </mxGraphModel>
  </diagram>
</mxfile>
